<?xml version="1.0" standalone="no"?>
<!DOCTYPE svg PUBLIC "-//W3C//DTD SVG 1.1//EN" "http://www.w3.org/Graphics/SVG/1.1/DTD/svg11.dtd" >
<svg xmlns="http://www.w3.org/2000/svg">
<metadata></metadata>
<defs>
<font id="gothamcondensedbold" horiz-adv-x="716" >
<font-face units-per-em="2048" ascent="1638" descent="-410" />
<missing-glyph horiz-adv-x="325" />
<glyph unicode="&#xfb01;" horiz-adv-x="860" d="M27 901v197h67v80q0 137 72 203.5t205 66.5q57 0 90 -8v-201q-10 2 -29 2q-45 0 -70.5 -25t-25.5 -75v-43h125v-197h-125v-901h-242v901h-67zM547 1202v242h246v-242h-246zM549 0v1098h242v-1098h-242z" />
<glyph unicode="&#xfb02;" horiz-adv-x="860" d="M27 901v197h67v80q0 137 72 203.5t205 66.5q57 0 90 -8v-201q-10 2 -29 2q-45 0 -70.5 -25t-25.5 -75v-43h125v-197h-125v-901h-242v901h-67zM549 0v1444h242v-1444h-242z" />
<glyph horiz-adv-x="0" />
<glyph horiz-adv-x="682" />
<glyph unicode=" "  horiz-adv-x="325" />
<glyph unicode="&#x09;" horiz-adv-x="325" />
<glyph unicode="&#xa0;" horiz-adv-x="325" />
<glyph unicode="!" horiz-adv-x="454" d="M80 1393v41h295v-41l-86 -947h-123zM86 0v285h283v-285h-283z" />
<glyph unicode="&#x22;" horiz-adv-x="706" d="M92 780v654h246v-19l-156 -635h-90zM430 780v654h246v-19l-156 -635h-90z" />
<glyph unicode="#" horiz-adv-x="772" d="M27 328v221h120l31 344h-115v221h134l28 320h158l-29 -320h131l29 320h158l-29 -320h102v-221h-120l-31 -344h115v-221h-134l-28 -328h-160l29 328h-129l-29 -328h-160l29 328h-100zM305 549h131l31 344h-131z" />
<glyph unicode="$" d="M51 1065v4q0 131 61 224.5t164 129.5v162h162v-141q105 -5 183 -45v-260q-62 36 -103 50.5t-88 14.5q-55 0 -92 -33t-37 -90v-4q0 -49 22.5 -85t116.5 -144q147 -170 193.5 -263t46.5 -216v-4q0 -125 -67.5 -219t-174.5 -132v-233h-162v209q-93 5 -204 59v260 q138 -80 225 -80q59 0 96 30.5t37 92.5v4q0 52 -27 102.5t-112 147.5q-73 82 -111 130t-71.5 104.5t-45.5 108t-12 116.5z" />
<glyph unicode="%" horiz-adv-x="1167" d="M51 1040v45q0 166 62.5 263.5t167.5 97.5t167 -97t62 -264v-45q0 -166 -62 -263t-167 -97t-167.5 97t-62.5 263zM178 0l670 1434h145l-669 -1434h-146zM219 1042q0 -109 15.5 -152.5t46.5 -43.5t46 43.5t15 152.5v41q0 109 -15 153t-46 44t-46.5 -44t-15.5 -153v-41z M657 348v45q0 166 62.5 263.5t167.5 97.5t167 -97t62 -264v-45q0 -166 -62 -263t-167 -97t-167.5 97t-62.5 263zM825 350q0 -109 15.5 -152.5t46.5 -43.5t46 43.5t15 152.5v41q0 109 -15 153t-46 44t-46.5 -44t-15.5 -153v-41z" />
<glyph unicode="&#x26;" horiz-adv-x="888" d="M27 367v12q0 125 55.5 226.5t163.5 195.5q-62 103 -91.5 179t-29.5 146v15q0 132 83 222.5t214 90.5q130 0 209.5 -86t79.5 -225v-15q0 -117 -51.5 -209t-151.5 -176l129 -243q19 84 31 190l192 -35q-24 -216 -92 -368l119 -203l-180 -111l-68 129q-56 -62 -117.5 -92 t-150.5 -30q-142 0 -243 108.5t-101 278.5zM266 381q0 -83 37 -133.5t98 -50.5q75 0 129 69l-180 357q-84 -108 -84 -226v-16zM338 1126q0 -72 72 -213q88 82 88 209v17q0 52 -22 83t-58 31t-58 -30t-22 -76v-21z" />
<glyph unicode="'" horiz-adv-x="368" d="M92 780v654h246v-19l-156 -635h-90z" />
<glyph unicode="(" horiz-adv-x="612" d="M86 590q0 161 26 298.5t80.5 255t147 200t217.5 118.5v-180q-240 -125 -240 -692q0 -569 240 -694v-181q-125 36 -217.5 118.5t-147 200t-80.5 255.5t-26 301z" />
<glyph unicode=")" horiz-adv-x="612" d="M55 -104q240 125 240 694q0 567 -240 692v180q125 -36 217.5 -118.5t147 -200t80.5 -255t26 -298.5q0 -163 -26 -301t-80.5 -255.5t-147 -200t-217.5 -118.5v181z" />
<glyph unicode="*" horiz-adv-x="610" d="M27 1044l186 76l-186 76l82 143l151 -135l-37 230h164l-37 -230l152 135l82 -143l-187 -76l187 -76l-82 -143l-152 135l37 -229h-164l37 229l-151 -135z" />
<glyph unicode="+" horiz-adv-x="892" d="M41 602v238h291v319h229v-319h291v-238h-291v-319h-229v319h-291z" />
<glyph unicode="," horiz-adv-x="446" d="M37 -231q54 12 92 37t55.5 58t23 66t1.5 70h-127v285h283v-234q0 -164 -78.5 -263.5t-229.5 -119.5z" />
<glyph unicode="-" horiz-adv-x="688" d="M80 512v246h528v-246h-528z" />
<glyph unicode="." horiz-adv-x="446" d="M82 0v285h283v-285h-283z" />
<glyph unicode="/" horiz-adv-x="630" d="M-18 -201l448 1774h203l-449 -1774h-202z" />
<glyph unicode="0" horiz-adv-x="806" d="M49 678v78q0 364 88.5 531t265.5 167q175 0 265 -167.5t90 -530.5v-78q0 -363 -90 -530.5t-265 -167.5q-177 0 -265.5 167t-88.5 531zM295 680q0 -118 6 -204.5t15 -137t23.5 -80.5t29.5 -39.5t34 -9.5t33.5 9.5t29 39.5t23.5 80.5t15 137t6 204.5v74q0 118 -6 204.5 t-15 137t-23.5 80.5t-29 39.5t-33.5 9.5t-34 -9.5t-29.5 -39.5t-23.5 -80.5t-15 -137t-6 -204.5v-74z" />
<glyph unicode="1" horiz-adv-x="518" d="M29 1122v252l221 70h178v-1444h-252v1169z" />
<glyph unicode="2" horiz-adv-x="655" d="M43 0v211l242 553q98 220 98 313q0 56 -34.5 90.5t-92.5 34.5q-89 0 -184 -59v241q117 60 239 60q141 0 228.5 -84t87.5 -236v-10q0 -79 -24 -159t-89 -230l-205 -475h312v-250h-578z" />
<glyph unicode="3" horiz-adv-x="671" d="M29 25v237q92 -39 180 -39q77 0 127.5 55t50.5 148v16q0 206 -250 222v163l234 363h-324v244h578v-224l-242 -370q57 -19 100.5 -48.5t78.5 -74t53 -109t18 -147.5v-23q0 -207 -109.5 -329.5t-281.5 -122.5q-121 0 -213 39z" />
<glyph unicode="4" horiz-adv-x="790" d="M29 264v191l377 983h245v-959h117v-215h-117v-264h-233v264h-389zM231 479h187v525z" />
<glyph unicode="5" horiz-adv-x="681" d="M49 752l39 682h510v-238h-326l-18 -287q50 11 96 11q47 0 89.5 -14t82 -46.5t67.5 -81t45 -122.5t17 -167v-18q0 -228 -109.5 -356.5t-291.5 -128.5q-99 0 -191 39v243q81 -43 164 -43q87 0 135 66.5t48 181.5v14q0 205 -138 205q-48 0 -98 -20z" />
<glyph unicode="6" horiz-adv-x="753" d="M49 649v43q0 174 20 305.5t54.5 215.5t87 136.5t111 73.5t131.5 21q86 0 172 -33v-235q-73 43 -146 43q-92 0 -140.5 -80.5t-51.5 -276.5q36 31 71.5 46.5t90.5 15.5q52 0 97.5 -21.5t85 -67.5t62.5 -130.5t23 -198.5v-39q0 -219 -93 -353t-239 -134q-170 0 -253 158.5 t-83 510.5zM289 508q0 -305 98 -305q96 0 96 254v41q0 219 -106 219q-45 0 -88 -37v-172z" />
<glyph unicode="7" horiz-adv-x="636" d="M31 1182v252h557v-177l-248 -1257h-244l252 1182h-317z" />
<glyph unicode="8" horiz-adv-x="761" d="M41 397v15q0 129 48.5 219t117.5 137q-146 94 -146 305v12q0 167 92.5 268t227.5 101t227 -101t92 -268v-12q0 -212 -145 -305q69 -47 117.5 -137t48.5 -219v-15q0 -193 -94.5 -305t-245.5 -112t-245.5 112t-94.5 305zM281 410q0 -232 100 -232t100 232v14 q0 227 -100 227t-100 -227v-14zM291 1049q0 -102 24 -153.5t66 -51.5t66 51.5t24 153.5v12q0 196 -90 196t-90 -196v-12z" />
<glyph unicode="9" horiz-adv-x="753" d="M37 926v28q0 230 92.5 365t239.5 135q170 0 253 -159t83 -511v-43q0 -174 -20 -305.5t-54.5 -215t-87 -136t-111 -73.5t-131.5 -21q-95 0 -192 39v235q93 -49 165 -49q91 0 140 77.5t53 262.5q-71 -61 -162 -61q-54 0 -99.5 22t-84.5 69.5t-61.5 134.5t-22.5 206z M270 934q0 -126 27.5 -180t79.5 -54q45 0 88 37v189q0 305 -98 305q-97 0 -97 -266v-31z" />
<glyph unicode=":" horiz-adv-x="466" d="M92 0v285h283v-285h-283zM92 813v285h283v-285h-283z" />
<glyph unicode=";" horiz-adv-x="466" d="M47 -231q54 12 92 37t55.5 58t23 66t1.5 70h-127v285h283v-234q0 -164 -78 -263.5t-229 -119.5zM92 813v285h283v-285h-283z" />
<glyph unicode="&#x3c;" d="M59 580v282l594 414v-289l-381 -264l381 -264v-293z" />
<glyph unicode="=" horiz-adv-x="995" d="M102 360v246h791v-246h-791zM102 836v245h791v-245h-791z" />
<glyph unicode="&#x3e;" d="M63 166v289l381 264l-381 264v293l594 -414v-282z" />
<glyph unicode="?" horiz-adv-x="655" d="M41 1165v226q108 53 223 53q161 0 262 -103.5t101 -263.5v-18q0 -259 -240 -367l-25 -246h-163l-23 359l8 10q91 29 144 89t53 145v4q0 70 -47 115.5t-119 45.5q-95 0 -174 -49zM143 0v285h283v-285h-283z" />
<glyph unicode="@" horiz-adv-x="1302" d="M55 440q0 129 22 255t61.5 238.5t99.5 208.5t134.5 165.5t168.5 109t198 39.5q148 0 264 -85.5t178 -227.5t62 -312q0 -179 -37.5 -333t-117.5 -256.5t-189 -102.5q-91 0 -141.5 45.5t-61.5 120.5q-87 -158 -200 -158q-76 0 -125 63.5t-49 182.5q0 166 40.5 315 t110.5 239.5t150 90.5q59 0 95.5 -37t51.5 -94l21 115l196 -33l-90 -520q-14 -79 -14 -137q0 -92 63 -92q54 0 102 84t76.5 223.5t28.5 294.5q0 144 -49 263t-147 192t-228 73q-129 0 -240 -80.5t-185.5 -213t-116.5 -301t-42 -345.5q-1 -299 128.5 -463t347.5 -164 q164 0 299 80l43 -71q-84 -51 -165 -72t-188 -21q-119 0 -219.5 45.5t-176.5 133t-118 227t-41 315.5zM526 406q0 -93 58 -93q67 0 112 187q33 141 33 250q0 92 -57 92q-32 0 -61.5 -48.5t-51.5 -138.5q-33 -138 -33 -249z" />
<glyph unicode="A" horiz-adv-x="815" d="M2 0l272 1438h267l272 -1438h-250l-47 285h-227l-45 -285h-242zM326 510h153l-76 473z" />
<glyph unicode="B" horiz-adv-x="806" d="M74 0v1434h217q95 0 176 -20t147.5 -62t105 -114.5t38.5 -168.5v-10q0 -225 -207 -324q49 -22 86.5 -47.5t70.5 -63t50.5 -90t17.5 -118.5v-19q0 -187 -130.5 -292t-344.5 -105h-227zM324 231h6q88 0 142 49.5t54 137.5v10q0 88 -54 137t-142 49h-6v-383zM324 831h4 q85 0 134.5 48.5t49.5 140.5v4q0 91 -48.5 134.5t-135.5 43.5h-4v-371z" />
<glyph unicode="C" horiz-adv-x="688" d="M49 692v49q0 184 32.5 322t90.5 219.5t132.5 121.5t164.5 40q94 0 164 -33v-258q-77 47 -139 47q-44 0 -77 -21.5t-59.5 -72t-40.5 -141.5t-14 -222v-53q0 -138 13.5 -230.5t41 -140.5t60.5 -67t80 -19q63 0 139 46v-246q-74 -43 -184 -43q-88 0 -160 40t-127.5 122.5 t-86 219.5t-30.5 320z" />
<glyph unicode="D" horiz-adv-x="858" d="M74 0v1434h233q242 0 372 -175.5t130 -517.5v-49q0 -342 -130 -517t-372 -175h-233zM324 229h10q221 0 221 463v49q0 463 -221 463h-10v-975z" />
<glyph unicode="E" horiz-adv-x="675" d="M74 0v1434h549v-238h-299v-356h264v-238h-264v-364h305v-238h-555z" />
<glyph unicode="F" horiz-adv-x="634" d="M74 0v1434h522v-238h-272v-360h237v-238h-237v-598h-250z" />
<glyph unicode="G" horiz-adv-x="829" d="M49 692v49q0 339 130.5 521t348.5 182q107 0 191 -41v-260q-101 61 -182 61q-110 0 -172 -113t-62 -339v-70q0 -108 12.5 -191.5t33 -133.5t49 -81.5t57 -43t61.5 -11.5q11 0 23 2v367h-123v223h350v-762q-141 -61 -260 -61q-77 0 -144 24.5t-125 79t-99.5 135t-65 199 t-23.5 264.5z" />
<glyph unicode="H" horiz-adv-x="864" d="M74 0v1434h250v-594h217v594h250v-1434h-250v602h-217v-602h-250z" />
<glyph unicode="I" horiz-adv-x="405" d="M78 0v1434h250v-1434h-250z" />
<glyph unicode="J" horiz-adv-x="604" d="M33 8v248q70 -25 119 -25q129 0 129 148v1055h254v-1074q0 -186 -91 -279t-254 -93q-67 0 -157 20z" />
<glyph unicode="K" horiz-adv-x="825" d="M74 0v1434h250v-600l202 600h283l-242 -607l246 -827h-278l-156 543l-55 -158v-385h-250z" />
<glyph unicode="L" horiz-adv-x="614" d="M74 0v1434h250v-1196h264v-238h-514z" />
<glyph unicode="M" horiz-adv-x="995" d="M74 0v1434h248l176 -525l176 525h248v-1434h-240v866l-182 -542h-4l-183 542v-866h-239z" />
<glyph unicode="N" horiz-adv-x="876" d="M74 0v1434h233l252 -725v725h244v-1434h-221l-265 760v-760h-243z" />
<glyph unicode="O" horiz-adv-x="860" d="M49 680v74q0 345 102.5 522.5t278.5 177.5t278.5 -177.5t102.5 -522.5v-74q0 -345 -102.5 -522.5t-278.5 -177.5t-278.5 177.5t-102.5 522.5zM303 680q0 -178 16.5 -285t43.5 -146.5t67 -39.5t67 39.5t43.5 146.5t16.5 285v74q0 178 -16.5 285t-43.5 146.5t-67 39.5 t-67 -39.5t-43.5 -146.5t-16.5 -285v-74z" />
<glyph unicode="P" horiz-adv-x="788" d="M74 0v1434h223q213 0 338 -120.5t125 -363.5v-4q0 -234 -117 -357.5t-317 -137.5h-2v-451h-250zM324 682h2q83 5 133.5 68.5t50.5 187.5v4q0 132 -46.5 196t-131.5 64h-8v-520z" />
<glyph unicode="Q" horiz-adv-x="874" d="M49 680v74q0 345 102.5 522.5t278.5 177.5t278.5 -177.5t102.5 -522.5v-74q0 -278 -78 -461l129 -119l-125 -133l-98 103q-87 -90 -203 -90q-182 0 -284.5 177t-102.5 523zM303 680q0 -194 18.5 -301t48 -140.5t79.5 -33.5q28 0 45 14l-123 123l116 129l60 -63 q10 113 10 272v74q0 178 -16.5 285t-43.5 146.5t-67 39.5t-67 -39.5t-43.5 -146.5t-16.5 -285v-74z" />
<glyph unicode="R" horiz-adv-x="815" d="M74 0v1434h258q203 0 322.5 -113t119.5 -344v-19q0 -247 -168 -376l193 -582h-267l-161 500h-4h-43v-500h-250zM324 725h12q87 0 137.5 55.5t50.5 175.5v17q0 126 -51.5 176.5t-142.5 50.5h-6v-475z" />
<glyph unicode="S" horiz-adv-x="665" d="M23 1065v4q0 169 98 272t250 103q132 0 221 -45v-260q-62 36 -103 50.5t-88 14.5q-55 0 -92 -33t-37 -90v-4q0 -49 22.5 -84.5t117.5 -144.5q147 -169 193 -262t46 -217v-4q0 -166 -102 -270.5t-252 -104.5q-133 0 -254 59v260q138 -80 225 -80q59 0 96 30.5t37 92.5v4 q0 52 -27 102.5t-112 147.5q-140 158 -189.5 247t-49.5 212z" />
<glyph unicode="T" horiz-adv-x="663" d="M31 1196v238h602v-238h-176v-1196h-250v1196h-176z" />
<glyph unicode="U" horiz-adv-x="851" d="M70 418v1016h247v-1041q0 -92 29.5 -136t79.5 -44t79.5 44t29.5 136v1041h247v-1016q0 -217 -97 -326.5t-259 -109.5t-259 109.5t-97 326.5z" />
<glyph unicode="V" horiz-adv-x="774" d="M2 1434h254l135 -934l135 934h246l-256 -1438h-258z" />
<glyph unicode="W" horiz-adv-x="1212" d="M6 1434h256l105 -879l125 879h231l123 -879l106 879h250l-217 -1438h-262l-119 850l-119 -850h-262z" />
<glyph unicode="X" horiz-adv-x="802" d="M16 0l234 731l-225 703h266l112 -414l115 414h260l-225 -703l233 -731h-266l-121 436l-123 -436h-260z" />
<glyph unicode="Y" horiz-adv-x="782" d="M0 1434h258l135 -537l137 537h252l-266 -869v-565h-250v565z" />
<glyph unicode="Z" horiz-adv-x="696" d="M47 0v199l330 999h-318v236h592v-199l-329 -999h329v-236h-604z" />
<glyph unicode="[" horiz-adv-x="585" d="M127 -266v1700h401v-172h-190v-1356h190v-172h-401z" />
<glyph unicode="\" horiz-adv-x="630" d="M-2 1573h203l448 -1774h-203z" />
<glyph unicode="]" horiz-adv-x="585" d="M57 -94h191v1356h-191v172h402v-1700h-402v172z" />
<glyph unicode="^" horiz-adv-x="1024" d="M262 1028l150 391h198l152 -391h-156l-96 264l-96 -264h-152z" />
<glyph unicode="_" horiz-adv-x="925" d="M-4 -121h934v-188h-934v188z" />
<glyph unicode="`" horiz-adv-x="1024" d="M301 1464l182 97l197 -353h-143z" />
<glyph unicode="a" d="M29 305v35q0 178 64.5 263t178.5 85q75 0 146 -41v66q0 84 -40 128t-114 44q-71 0 -182 -51v229q105 47 229 47q168 0 257 -97t89 -284v-729h-241v117q-64 -135 -178 -135q-92 0 -150.5 87.5t-58.5 235.5zM260 326q0 -142 76 -142q33 0 57.5 27.5t24.5 77.5v188 q-41 23 -76 23q-82 0 -82 -146v-28z" />
<glyph unicode="b" horiz-adv-x="786" d="M68 0v1444h241v-483q17 32 31 53.5t38 48.5t55 41t69 14q233 0 233 -520v-98q0 -520 -233 -520q-38 0 -68.5 13t-55 40t-37.5 46.5t-32 53.5v-133h-241zM307 512q0 -146 25 -223.5t71 -77.5q91 0 91 301v74q0 301 -91 301q-46 0 -71 -77t-25 -224v-74z" />
<glyph unicode="c" horiz-adv-x="585" d="M47 514v66q0 256 95.5 395t250.5 139q53 0 84 -6t68 -23v-247q-67 41 -121 41q-131 0 -131 -295v-74q0 -295 135 -295q48 0 119 47v-237q-80 -45 -160 -45q-157 0 -248.5 137.5t-91.5 396.5z" />
<glyph unicode="d" horiz-adv-x="786" d="M51 500v98q0 142 18 245.5t50.5 162t73.5 85.5t92 27q38 0 68.5 -13t54.5 -40.5t37 -46.5t32 -53v479h242v-1444h-242v137q-17 -33 -30.5 -54t-37.5 -48t-55 -41t-69 -14q-234 0 -234 520zM293 512q0 -301 90 -301q46 0 71 77t25 224v74q0 146 -25 223.5t-71 77.5 q-90 0 -90 -301v-74z" />
<glyph unicode="e" d="M41 520v53q0 254 95.5 397.5t238.5 143.5q145 0 228 -142.5t83 -408.5v-127h-403q10 -121 55 -176t111 -55q50 0 88.5 18t103.5 62l18 -222q-67 -44 -121 -63.5t-120 -19.5q-162 0 -269.5 142.5t-107.5 397.5zM281 627h178q0 272 -84 272q-88 0 -94 -272z" />
<glyph unicode="f" horiz-adv-x="471" d="M27 901v197h67v80q0 137 72 203.5t205 66.5q57 0 90 -8v-201q-10 2 -29 2q-45 0 -70.5 -25t-25.5 -75v-43h125v-197h-125v-901h-242v901h-67z" />
<glyph unicode="g" horiz-adv-x="786" d="M51 586v12q0 520 232 520q38 0 69 -13t55 -39t38 -47t32 -54v133h242v-1002q0 -366 -385 -366q-123 0 -238 34v224q122 -45 205 -45q86 0 131 40t45 132v108q-16 -32 -31 -54.5t-38.5 -48.5t-55 -40t-69.5 -14q-51 0 -92 27t-73 86t-49.5 162t-17.5 245zM293 590 q0 -293 90 -293q44 0 70 74.5t26 218.5v4q0 143 -26 218t-70 75q-90 0 -90 -293v-4z" />
<glyph unicode="h" horiz-adv-x="776" d="M68 0v1444h241v-477q36 71 82 111t113 40q102 0 156.5 -78.5t54.5 -208.5v-831h-242v776q0 59 -21.5 92t-58.5 33q-38 0 -61 -33t-23 -92v-776h-241z" />
<glyph unicode="i" horiz-adv-x="380" d="M68 1202v242h245v-242h-245zM70 0v1098h241v-1098h-241z" />
<glyph unicode="j" horiz-adv-x="385" d="M-39 -74h23q90 0 90 88v1084h241v-1104q0 -266 -258 -266q-52 0 -96 8v190zM72 1202v242h245v-242h-245z" />
<glyph unicode="k" horiz-adv-x="731" d="M68 0v1444h241v-766l154 420h262l-188 -445l180 -653h-268l-95 418l-45 -117v-301h-241z" />
<glyph unicode="l" horiz-adv-x="380" d="M70 0v1444h241v-1444h-241z" />
<glyph unicode="m" horiz-adv-x="1179" d="M68 0v1098h241v-129q39 74 85 111.5t110 37.5q115 0 184 -127q41 57 87.5 92t109.5 35q94 0 160.5 -76.5t66.5 -214.5v-827h-242v774q0 60 -20 93.5t-57 33.5t-59.5 -34t-22.5 -93v-774h-242v774q0 60 -20.5 93.5t-57.5 33.5t-59.5 -34t-22.5 -93v-774h-241z" />
<glyph unicode="n" horiz-adv-x="776" d="M68 0v1098h241v-131q36 71 82 111t113 40q102 0 156.5 -78.5t54.5 -208.5v-831h-242v776q0 59 -21.5 92t-58.5 33q-38 0 -61 -33t-23 -92v-776h-241z" />
<glyph unicode="o" horiz-adv-x="774" d="M47 514v66q0 257 93.5 395.5t246.5 138.5t246.5 -138.5t93.5 -395.5v-66q0 -257 -93.5 -395.5t-246.5 -138.5t-246.5 138.5t-93.5 395.5zM289 510q0 -157 25.5 -236t72.5 -79t72.5 79t25.5 236v74q0 315 -98 315t-98 -315v-74z" />
<glyph unicode="p" horiz-adv-x="786" d="M68 -266v1364h241v-137q17 32 31 53.5t38 48.5t55 41t69 14q233 0 233 -520v-98q0 -520 -233 -520q-38 0 -68.5 13t-55 40t-37.5 46.5t-32 53.5v-399h-241zM307 512q0 -146 25 -223.5t71 -77.5q91 0 91 301v74q0 301 -91 301q-46 0 -71 -77t-25 -224v-74z" />
<glyph unicode="q" horiz-adv-x="786" d="M51 500v98q0 142 18 245.5t50.5 162t73.5 85.5t92 27q38 0 68.5 -13t54.5 -40.5t37 -46.5t32 -53v133h242v-1364h-242v403q-17 -33 -30.5 -54t-37.5 -48t-55 -41t-69 -14q-234 0 -234 520zM293 512q0 -301 90 -301q46 0 71 77t25 224v74q0 146 -25 223.5t-71 77.5 q-90 0 -90 -301v-74z" />
<glyph unicode="r" horiz-adv-x="512" d="M68 0v1098h241v-137q52 149 164 149h12v-291h-4q-172 0 -172 -233v-586h-241z" />
<glyph unicode="s" horiz-adv-x="581" d="M23 813v4q0 136 85.5 216.5t225.5 80.5q92 0 180 -29v-237q-86 47 -166 47q-41 0 -65.5 -20.5t-24.5 -51.5v-4q0 -31 24 -64.5t107 -115.5q100 -97 138 -173t38 -171v-4q0 -140 -87 -225.5t-220 -85.5q-108 0 -223 51v237q132 -69 207 -69q39 0 63.5 23t24.5 59v4 q0 36 -23.5 71.5t-99.5 110.5q-93 91 -138.5 170t-45.5 176z" />
<glyph unicode="t" horiz-adv-x="499" d="M31 901v197h65v280h242v-280h129v-197h-129v-631q0 -67 68 -67q29 0 59 12v-192q-68 -37 -143 -37q-226 0 -226 202v713h-65z" />
<glyph unicode="u" horiz-adv-x="776" d="M61 266v832h242v-776q0 -59 21.5 -92t58.5 -33q38 0 61 33t23 92v776h242v-1098h-242v131q-36 -71 -82 -111t-113 -40q-102 0 -156.5 78t-54.5 208z" />
<glyph unicode="v" horiz-adv-x="741" d="M20 1098h240l113 -713l112 713h236l-225 -1102h-248z" />
<glyph unicode="w" horiz-adv-x="1077" d="M23 1098h245l82 -615l92 615h197l92 -615l82 615h242l-187 -1102h-237l-92 596l-93 -596h-237z" />
<glyph unicode="x" horiz-adv-x="729" d="M16 0l199 563l-195 535h250l97 -328l96 328h246l-195 -535l199 -563h-254l-97 348l-96 -348h-250z" />
<glyph unicode="y" horiz-adv-x="741" d="M23 1098h239l105 -647l114 647h238l-303 -1364h-236l70 305z" />
<glyph unicode="z" horiz-adv-x="593" d="M25 0v172l288 721h-278v205h536v-172l-288 -721h288v-205h-546z" />
<glyph unicode="{" horiz-adv-x="624" d="M49 489v197h39q72 0 117 42.5t45 117.5q0 61 -27.5 147.5t-27.5 136.5q0 148 96.5 239t283.5 95v-164q-68 -2 -118.5 -44.5t-50.5 -116.5q0 -64 31.5 -153t31.5 -144q0 -106 -67.5 -172t-176.5 -82q110 -16 177 -81t67 -173q0 -55 -31.5 -144t-31.5 -153q0 -74 50.5 -117 t118.5 -45v-164q-187 4 -283.5 95t-96.5 239q0 50 27.5 137t27.5 148q0 75 -43.5 117t-118.5 42h-39z" />
<glyph unicode="|" horiz-adv-x="509" d="M160 -201v1774h190v-1774h-190z" />
<glyph unicode="}" horiz-adv-x="636" d="M61 -125q68 2 119 45t51 117q0 64 -31.5 153t-31.5 144q0 106 67.5 172t176.5 82q-110 16 -177 81t-67 173q0 55 31.5 144t31.5 153q0 74 -51 116.5t-119 44.5v164q187 -4 284 -95t97 -239q0 -50 -27.5 -136.5t-27.5 -147.5q0 -76 44 -118t118 -42h39v-197h-39 q-72 0 -117 -42t-45 -117q0 -61 27.5 -148t27.5 -137q0 -148 -97 -239t-284 -95v164z" />
<glyph unicode="~" horiz-adv-x="755" d="M76 549q11 113 63 169t113 56q66 0 137 -51q3 -2 14.5 -9.5t16 -10t14 -8t16 -7.5t15.5 -4t18 -2q25 0 39.5 22.5t28.5 77.5l129 -37q-11 -113 -63 -169t-113 -56q-66 0 -137 51q-3 2 -12.5 8.5t-13.5 8.5t-12.5 7t-13.5 7t-13 5t-15 4t-15 1q-25 0 -39 -22t-28 -78z" />
<glyph unicode="&#xa1;" horiz-adv-x="454" d="M80 0v41l86 946h123l86 -946v-41h-295zM86 1149v285h283v-285h-283z" />
<glyph unicode="&#xa2;" horiz-adv-x="614" d="M51 688v66q0 201 60.5 332t164.5 178v180h162v-156q63 -6 111 -28v-248q-67 41 -121 41q-131 0 -131 -295v-74q0 -295 135 -295q48 0 119 47v-237q-64 -36 -113 -41v-170h-162v188q-106 44 -165.5 174.5t-59.5 337.5z" />
<glyph unicode="&#xa3;" d="M45 0v166l100 49v358h-94v228h94v227q0 119 24.5 197.5t80.5 134.5q90 90 242 90q85 0 155 -18v-246q-58 20 -112 20q-58 0 -97 -39t-39 -137v-229h193v-228h-193v-346h287v-227h-641z" />
<glyph unicode="&#xa4;" horiz-adv-x="776" d="M31 463v184h110v43v53v52h-110v184h127q35 240 142.5 357.5t260.5 117.5q94 0 164 -33v-258q-77 47 -139 47q-66 0 -109.5 -53.5t-64.5 -177.5h204v-184h-221v-50v-57v-41h221v-184h-208q21 -134 65.5 -187t116.5 -53q65 0 139 45v-245q-74 -43 -184 -43 q-150 0 -253.5 119.5t-135.5 363.5h-125z" />
<glyph unicode="&#xa5;" horiz-adv-x="823" d="M20 1434h250l144 -584l145 584h244l-225 -736h133v-188h-179v-123h179v-188h-179v-199h-241v199h-178v188h178v123h-178v188h133z" />
<glyph unicode="&#xa7;" horiz-adv-x="837" d="M33 741v4q0 75 44 142t124 96q-60 75 -60 178v4q0 133 87 208t227 75q108 0 196 -29v-235q-86 47 -180 47q-47 0 -70.5 -19.5t-23.5 -46.5v-4q0 -27 13 -45.5t58.5 -50.5t149.5 -92q44 -26 77 -51t64.5 -59t48.5 -76.5t17 -90.5v-4q0 -74 -42 -139t-122 -94 q57 -65 57 -168v-4q0 -139 -86.5 -220t-220.5 -81q-55 0 -123.5 14t-120.5 37v239q132 -69 228 -69q39 0 63.5 23t24.5 59v4q0 21 -11.5 39t-36.5 35.5t-47.5 30t-63 33t-64.5 34.5q-207 113 -207 276zM268 774q0 -20 6 -36t27 -40.5t67.5 -56.5t120.5 -72q20 -10 23 -12 q57 51 57 111v4q0 26 -11.5 46.5t-61.5 58.5t-148 91q-3 2 -10 6.5t-10 6.5q-60 -41 -60 -103v-4z" />
<glyph unicode="&#xa8;" horiz-adv-x="1024" d="M233 1221v215h218v-215h-218zM573 1221v215h218v-215h-218z" />
<glyph unicode="&#xa9;" horiz-adv-x="1069" d="M49 682v70q0 321 134.5 511.5t351.5 190.5t351 -190.5t134 -511.5v-70q0 -321 -134 -511.5t-351 -190.5t-351.5 190.5t-134.5 511.5zM127 680q0 -286 109.5 -456.5t298.5 -170.5t298 170.5t109 456.5v74q0 286 -109 456t-298 170t-298.5 -170t-109.5 -456v-74zM334 700 v37q0 197 64 294t167 97q53 0 90 -18v-147q-47 26 -75 26q-50 0 -76.5 -55.5t-26.5 -194.5v-41q0 -100 14 -156.5t35.5 -74.5t55.5 -18q33 0 75 26v-141q-43 -25 -100 -25q-101 0 -162 97t-61 294z" />
<glyph unicode="&#xaa;" horiz-adv-x="512" d="M66 618v99h380v-99h-380zM76 1001v19q0 190 133 190q40 0 82 -22v35q0 46 -22.5 70t-63.5 24q-33 0 -101 -29v127q62 27 127 27q92 0 141.5 -54t49.5 -157v-397h-133v65q-39 -76 -99 -76q-50 0 -82 48t-32 130zM203 1014q0 -78 43 -78q19 0 32 14.5t13 42.5v103 q-30 12 -43 12q-45 0 -45 -80v-14z" />
<glyph unicode="&#xab;" horiz-adv-x="970" d="M47 541v16l275 459l188 -111l-221 -354l227 -354l-194 -115zM463 541v16l274 459l189 -111l-221 -354l227 -354l-195 -115z" />
<glyph unicode="&#xad;" horiz-adv-x="688" d="M80 512v246h528v-246h-528z" />
<glyph unicode="&#xae;" horiz-adv-x="1069" d="M49 682v70q0 321 134.5 511.5t351.5 190.5t351 -190.5t134 -511.5v-70q0 -321 -134 -511.5t-351 -190.5t-351.5 190.5t-134.5 511.5zM127 680q0 -286 109.5 -456.5t298.5 -170.5t298 170.5t109 456.5v74q0 286 -109 456t-298 170t-298.5 -170t-109.5 -456v-74zM350 336 v788h144q110 0 175.5 -62t65.5 -190v-10q0 -139 -92 -207l107 -319h-146l-90 274h-8h-19v-274h-137zM487 735h9q102 0 102 127v8q0 70 -28 97.5t-78 27.5h-5v-260z" />
<glyph unicode="&#xaf;" horiz-adv-x="1024" d="M242 1239v174h540v-174h-540z" />
<glyph unicode="&#xb0;" horiz-adv-x="561" d="M51 1081v25q0 153 63 246.5t167 93.5t166.5 -93.5t62.5 -246.5v-25q0 -153 -62.5 -246.5t-166.5 -93.5t-167 93.5t-63 246.5zM209 1081q0 -184 72 -184q71 0 71 184v25q0 184 -71 184q-72 0 -72 -184v-25z" />
<glyph unicode="&#xb1;" horiz-adv-x="671" d="M29 25v237q89 -39 184 -39q75 0 126.5 54.5t51.5 146.5v6q0 98 -64 152t-186 57v207q110 9 178 68t68 147v4q0 68 -41 106.5t-110 38.5q-82 0 -187 -55v231q120 60 242 60q146 0 242 -90.5t96 -261.5v3v1v-1v-1v-1v-1v-9q0 -120 -57.5 -202t-145.5 -123q211 -87 211 -340 v-10q0 -196 -108.5 -310t-268.5 -114q-136 0 -231 39z" />
<glyph unicode="&#xb4;" horiz-adv-x="1024" d="M319 1208l197 353l182 -97l-235 -256h-144z" />
<glyph unicode="&#xb5;" horiz-adv-x="860" d="M49 680v74q0 345 102.5 522.5t278.5 177.5t278.5 -177.5t102.5 -522.5v-74q0 -368 -119 -551l174 -295h-262l-98 156q-38 -10 -76 -10q-176 0 -278.5 177.5t-102.5 522.5zM303 680q0 -178 16.5 -285t43.5 -146.5t67 -39.5t67 39.5t43.5 146.5t16.5 285v74 q0 178 -16.5 285t-43.5 146.5t-67 39.5t-67 -39.5t-43.5 -146.5t-16.5 -285v-74z" />
<glyph unicode="&#xb6;" horiz-adv-x="737" d="M29 946v4q0 128 37 223.5t103 151t149 82.5t184 27h151v-1434h-250v459q-72 8 -136.5 40t-119 88.5t-86.5 149t-32 209.5z" />
<glyph unicode="&#xb7;" horiz-adv-x="487" d="M102 492v284h283v-284h-283z" />
<glyph unicode="&#xb8;" horiz-adv-x="1024" d="M268 -213l201 254h143l-139 -332z" />
<glyph unicode="&#xba;" horiz-adv-x="512" d="M70 1114v37q0 141 51 217t135 76t135 -76t51 -217v-37q0 -141 -51 -217t-135 -76t-135 76t-51 217zM72 618v99h368v-99h-368zM203 1112q0 -174 53 -174t53 174v41q0 174 -53 174t-53 -174v-41z" />
<glyph unicode="&#xbb;" horiz-adv-x="970" d="M39 197l227 354l-221 354l188 111l275 -459v-16l-275 -459zM455 197l227 354l-221 354l188 111l275 -459v-16l-275 -459z" />
<glyph unicode="&#xbf;" horiz-adv-x="655" d="M29 356v19q0 259 239 366l25 246h164l22 -358l-8 -11q-91 -29 -144 -88.5t-53 -144.5v-4q0 -70 47 -116t119 -46q95 0 174 49v-225q-108 -53 -223 -53q-161 0 -261.5 103t-100.5 263zM229 1149v285h283v-285h-283z" />
<glyph unicode="&#xc0;" horiz-adv-x="815" d="M2 0l272 1438h267l272 -1438h-250l-47 285h-227l-45 -285h-242zM131 1773l182 97l197 -353h-143zM326 510h153l-76 473z" />
<glyph unicode="&#xc1;" horiz-adv-x="815" d="M2 0l272 1438h267l272 -1438h-250l-47 285h-227l-45 -285h-242zM290 1517l197 353l182 -97l-235 -256h-144zM326 510h153l-76 473z" />
<glyph unicode="&#xc2;" horiz-adv-x="815" d="M2 0l272 1438h267l272 -1438h-250l-47 285h-227l-45 -285h-242zM158 1517l150 322h198l152 -322h-148l-104 217l-104 -217h-144zM326 510h153l-76 473z" />
<glyph unicode="&#xc3;" horiz-adv-x="815" d="M2 0l272 1438h267l272 -1438h-250l-47 285h-227l-45 -285h-242zM96 1530q11 113 63 169t113 56q67 0 138 -51q3 -2 14.5 -9.5t16 -10t14 -8t16 -7.5t15.5 -4t18 -2q25 0 39 22t28 78l129 -37q-11 -113 -63 -169t-113 -56q-66 0 -137 51q-3 2 -14.5 9.5t-16 10t-14 8 t-16 7.5t-15.5 4t-18 2q-25 0 -39.5 -22.5t-28.5 -77.5zM326 510h153l-76 473z" />
<glyph unicode="&#xc4;" horiz-adv-x="815" d="M2 0l272 1438h267l272 -1438h-250l-47 285h-227l-45 -285h-242zM127 1530v215h218v-215h-218zM326 510h153l-76 473zM467 1530v215h218v-215h-218z" />
<glyph unicode="&#xc5;" horiz-adv-x="815" d="M2 0l262 1380q-76 70 -76 174v23q0 96 63.5 162.5t158.5 66.5q92 0 154.5 -66.5t62.5 -162.5v-23q0 -104 -76 -174l262 -1380h-250l-47 285h-227l-45 -285h-242zM315 1559q0 -43 27.5 -77t67.5 -34q39 0 63.5 33.5t24.5 77.5v14q0 46 -24 79.5t-64 33.5q-41 0 -68 -33.5 t-27 -79.5v-14zM326 510h153l-76 473z" />
<glyph unicode="&#xc6;" horiz-adv-x="1138" d="M0 0l377 1434h708v-238h-299v-356h265v-238h-265v-364h306v-238h-555v285h-228l-67 -285h-242zM362 510h175v666h-19z" />
<glyph unicode="&#xc7;" horiz-adv-x="688" d="M49 692v49q0 184 32.5 322t90.5 219.5t132.5 121.5t164.5 40q94 0 164 -33v-258q-77 47 -139 47q-44 0 -77 -21.5t-59.5 -72t-40.5 -141.5t-14 -222v-53q0 -138 13.5 -230.5t41 -140.5t60.5 -67t80 -19q63 0 139 46v-246q-58 -35 -139 -41l-119 -283l-205 78l172 219 q-138 43 -217.5 213.5t-79.5 472.5z" />
<glyph unicode="&#xc8;" horiz-adv-x="675" d="M72 1774l182 96l197 -352h-144zM74 0v1434h549v-238h-299v-356h264v-238h-264v-364h305v-238h-555z" />
<glyph unicode="&#xc9;" horiz-adv-x="675" d="M74 0v1434h549v-238h-299v-356h264v-238h-264v-364h305v-238h-555zM227 1517l197 353l182 -97l-235 -256h-144z" />
<glyph unicode="&#xca;" horiz-adv-x="675" d="M74 0v1434h549v-238h-299v-356h264v-238h-264v-364h305v-238h-555zM92 1518l150 321h198l152 -321h-148l-104 217l-104 -217h-144z" />
<glyph unicode="&#xcb;" horiz-adv-x="675" d="M71 1530v215h218v-215h-218zM74 0v1434h549v-238h-299v-356h264v-238h-264v-364h305v-238h-555zM411 1530v215h218v-215h-218z" />
<glyph unicode="&#xcc;" horiz-adv-x="405" d="M-100 1774l182 96l197 -352h-144zM78 0v1434h250v-1434h-250z" />
<glyph unicode="&#xcd;" horiz-adv-x="405" d="M78 0v1434h250v-1434h-250zM112 1517l197 353l182 -97l-235 -256h-144z" />
<glyph unicode="&#xce;" horiz-adv-x="405" d="M-47 1518l149 321h199l152 -321h-148l-104 217l-105 -217h-143zM78 0v1434h250v-1434h-250z" />
<glyph unicode="&#xcf;" horiz-adv-x="405" d="M-76 1530v215h218v-215h-218zM78 0v1434h250v-1434h-250zM264 1530v215h218v-215h-218z" />
<glyph unicode="&#xd0;" horiz-adv-x="913" d="M31 594v246h104v594h227q242 0 372 -175.5t130 -517.5v-49q0 -342 -130 -517t-372 -175h-227v594h-104zM379 229h10q221 0 221 463v49q0 463 -221 463h-10v-364h117v-246h-117v-365z" />
<glyph unicode="&#xd1;" horiz-adv-x="876" d="M74 0v1434h233l252 -725v725h244v-1434h-221l-265 760v-760h-243zM154 1530q11 113 63 169t113 56q66 0 137 -51q3 -2 14.5 -9.5t16 -10t14 -8t16 -7.5t15.5 -4t18 -2q25 0 39.5 22.5t28.5 77.5l129 -37q-11 -113 -63 -169t-113 -56q-66 0 -137 51q-3 2 -14.5 9.5t-16 10 t-14 8t-16 7.5t-15.5 4t-18 2q-25 0 -39.5 -22.5t-28.5 -77.5z" />
<glyph unicode="&#xd2;" horiz-adv-x="860" d="M49 680v74q0 345 102.5 522.5t278.5 177.5t278.5 -177.5t102.5 -522.5v-74q0 -345 -102.5 -522.5t-278.5 -177.5t-278.5 177.5t-102.5 522.5zM129 1773l182 97l197 -353h-143zM303 680q0 -178 16.5 -285t43.5 -146.5t67 -39.5t67 39.5t43.5 146.5t16.5 285v74 q0 178 -16.5 285t-43.5 146.5t-67 39.5t-67 -39.5t-43.5 -146.5t-16.5 -285v-74z" />
<glyph unicode="&#xd3;" horiz-adv-x="860" d="M49 680v74q0 345 102.5 522.5t278.5 177.5t278.5 -177.5t102.5 -522.5v-74q0 -345 -102.5 -522.5t-278.5 -177.5t-278.5 177.5t-102.5 522.5zM303 680q0 -178 16.5 -285t43.5 -146.5t67 -39.5t67 39.5t43.5 146.5t16.5 285v74q0 178 -16.5 285t-43.5 146.5t-67 39.5 t-67 -39.5t-43.5 -146.5t-16.5 -285v-74zM311 1517l197 353l182 -97l-235 -256h-144z" />
<glyph unicode="&#xd4;" horiz-adv-x="860" d="M49 680v74q0 345 102.5 522.5t278.5 177.5t278.5 -177.5t102.5 -522.5v-74q0 -345 -102.5 -522.5t-278.5 -177.5t-278.5 177.5t-102.5 522.5zM180 1518l150 321h198l152 -321h-148l-104 217l-104 -217h-144zM303 680q0 -178 16.5 -285t43.5 -146.5t67 -39.5t67 39.5 t43.5 146.5t16.5 285v74q0 178 -16.5 285t-43.5 146.5t-67 39.5t-67 -39.5t-43.5 -146.5t-16.5 -285v-74z" />
<glyph unicode="&#xd5;" horiz-adv-x="860" d="M49 680v74q0 345 102.5 522.5t278.5 177.5t278.5 -177.5t102.5 -522.5v-74q0 -345 -102.5 -522.5t-278.5 -177.5t-278.5 177.5t-102.5 522.5zM121 1530q11 113 63 169t113 56q66 0 137 -51q3 -2 14.5 -9.5t16 -10t14 -8t16 -7.5t15.5 -4t18 -2q25 0 39.5 22.5t28.5 77.5 l129 -37q-11 -113 -63 -169t-113 -56q-66 0 -137 51q-3 2 -14.5 9.5t-16 10t-14 8t-16 7.5t-15.5 4t-18 2q-25 0 -39.5 -22.5t-28.5 -77.5zM303 680q0 -178 16.5 -285t43.5 -146.5t67 -39.5t67 39.5t43.5 146.5t16.5 285v74q0 178 -16.5 285t-43.5 146.5t-67 39.5t-67 -39.5 t-43.5 -146.5t-16.5 -285v-74z" />
<glyph unicode="&#xd6;" horiz-adv-x="860" d="M49 680v74q0 345 102.5 522.5t278.5 177.5t278.5 -177.5t102.5 -522.5v-74q0 -345 -102.5 -522.5t-278.5 -177.5t-278.5 177.5t-102.5 522.5zM151 1530v215h218v-215h-218zM303 680q0 -178 16.5 -285t43.5 -146.5t67 -39.5t67 39.5t43.5 146.5t16.5 285v74 q0 178 -16.5 285t-43.5 146.5t-67 39.5t-67 -39.5t-43.5 -146.5t-16.5 -285v-74zM491 1530v215h218v-215h-218z" />
<glyph unicode="&#xd8;" horiz-adv-x="860" d="M49 680v74q0 345 102.5 522.5t278.5 177.5q123 0 207 -84l31 74h141l-84 -201q86 -180 86 -489v-74q0 -345 -102.5 -522.5t-278.5 -177.5q-111 0 -192 69l-25 -59h-141l73 178q-96 184 -96 512zM299 680q0 -96 2 -137l231 555q-31 131 -102 131q-41 0 -69 -40.5 t-45 -148.5t-17 -286v-74zM334 305q31 -100 96 -100q41 0 69 40.5t45 148.5t17 286v74q0 63 -2 92z" />
<glyph unicode="&#xd9;" horiz-adv-x="851" d="M70 418v1016h247v-1041q0 -92 29.5 -136t79.5 -44t79.5 44t29.5 136v1041h247v-1016q0 -217 -97 -326.5t-259 -109.5t-259 109.5t-97 326.5zM115 1773l182 97l197 -353h-143z" />
<glyph unicode="&#xda;" horiz-adv-x="851" d="M70 418v1016h247v-1041q0 -92 29.5 -136t79.5 -44t79.5 44t29.5 136v1041h247v-1016q0 -217 -97 -326.5t-259 -109.5t-259 109.5t-97 326.5zM354 1517l197 353l182 -97l-235 -256h-144z" />
<glyph unicode="&#xdb;" horiz-adv-x="851" d="M70 418v1016h247v-1041q0 -92 29.5 -136t79.5 -44t79.5 44t29.5 136v1041h247v-1016q0 -217 -97 -326.5t-259 -109.5t-259 109.5t-97 326.5zM176 1518l150 321h198l152 -321h-148l-104 217l-105 -217h-143z" />
<glyph unicode="&#xdc;" horiz-adv-x="851" d="M70 418v1016h247v-1041q0 -92 29.5 -136t79.5 -44t79.5 44t29.5 136v1041h247v-1016q0 -217 -97 -326.5t-259 -109.5t-259 109.5t-97 326.5zM147 1530v215h218v-215h-218zM487 1530v215h218v-215h-218z" />
<glyph unicode="&#xdd;" horiz-adv-x="782" d="M0 1434h258l135 -537l137 537h252l-266 -869v-565h-250v565zM288 1517l197 353l182 -97l-235 -256h-144z" />
<glyph unicode="&#xde;" horiz-adv-x="788" d="M74 0v1434h250v-197h2q65 0 125 -15.5t117 -52.5t99 -91t67.5 -137.5t25.5 -186.5v-4q0 -234 -117 -358t-317 -138h-2v-254h-250zM324 485h2q83 5 133.5 68.5t50.5 187.5v4q0 133 -46.5 197t-131.5 64h-8v-521z" />
<glyph unicode="&#xdf;" horiz-adv-x="823" d="M68 0v1020q0 195 92 311.5t260 116.5q153 0 239 -97.5t86 -240.5v-16q0 -218 -157 -328q194 -95 194 -340v-14q0 -192 -95 -301t-279 -115v207q135 18 135 217v6q0 187 -135 225v176q106 71 106 238v12q0 77 -25.5 118.5t-74.5 41.5q-105 0 -105 -209v-1028h-241z" />
<glyph unicode="&#xe0;" d="M29 305v35q0 178 64.5 263t178.5 85q75 0 146 -41v66q0 84 -40 128t-114 44q-71 0 -182 -51v229q105 47 229 47q168 0 257 -97t89 -284v-729h-241v117q-64 -135 -178 -135q-92 0 -150.5 87.5t-58.5 235.5zM41 1464l182 97l197 -353h-144zM260 326q0 -142 76 -142 q33 0 57.5 27.5t24.5 77.5v188q-41 23 -76 23q-82 0 -82 -146v-28z" />
<glyph unicode="&#xe1;" d="M29 305v35q0 178 64.5 263t178.5 85q75 0 146 -41v66q0 84 -40 128t-114 44q-71 0 -182 -51v229q105 47 229 47q168 0 257 -97t89 -284v-729h-241v117q-64 -135 -178 -135q-92 0 -150.5 87.5t-58.5 235.5zM217 1208l197 353l182 -97l-235 -256h-144zM260 326 q0 -142 76 -142q33 0 57.5 27.5t24.5 77.5v188q-41 23 -76 23q-82 0 -82 -146v-28z" />
<glyph unicode="&#xe2;" d="M29 305v35q0 178 64.5 263t178.5 85q75 0 146 -41v66q0 84 -40 128t-114 44q-71 0 -182 -51v229q105 47 229 47q168 0 257 -97t89 -284v-729h-241v117q-64 -135 -178 -135q-92 0 -150.5 87.5t-58.5 235.5zM96 1208l150 322h198l152 -322h-148l-104 217l-104 -217h-144z M260 326q0 -142 76 -142q33 0 57.5 27.5t24.5 77.5v188q-41 23 -76 23q-82 0 -82 -146v-28z" />
<glyph unicode="&#xe3;" d="M29 305v35q0 178 64.5 263t178.5 85q75 0 146 -41v66q0 84 -40 128t-114 44q-71 0 -182 -51v229q105 47 229 47q168 0 257 -97t89 -284v-729h-241v117q-64 -135 -178 -135q-92 0 -150.5 87.5t-58.5 235.5zM49 1221q11 113 63 169t113 56q66 0 137 -51q3 -2 14.5 -9.5 t16 -10t14 -8t16 -7.5t15.5 -4t18 -2q25 0 39.5 22.5t28.5 77.5l129 -37q-11 -113 -63 -169t-113 -56q-66 0 -137 51q-3 2 -14.5 9.5t-16 10t-14 8t-16 7.5t-15.5 4t-18 2q-25 0 -39.5 -22.5t-28.5 -77.5zM260 326q0 -142 76 -142q33 0 57.5 27.5t24.5 77.5v188 q-41 23 -76 23q-82 0 -82 -146v-28z" />
<glyph unicode="&#xe4;" d="M29 305v35q0 178 64.5 263t178.5 85q75 0 146 -41v66q0 84 -40 128t-114 44q-71 0 -182 -51v229q105 47 229 47q168 0 257 -97t89 -284v-729h-241v117q-64 -135 -178 -135q-92 0 -150.5 87.5t-58.5 235.5zM63 1221v215h218v-215h-218zM260 326q0 -142 76 -142 q33 0 57.5 27.5t24.5 77.5v188q-41 23 -76 23q-82 0 -82 -146v-28zM403 1221v215h218v-215h-218z" />
<glyph unicode="&#xe5;" d="M29 305v35q0 178 64.5 263t178.5 85q75 0 146 -41v66q0 84 -40 128t-114 44q-71 0 -182 -51v229q105 47 229 47q168 0 257 -97t89 -284v-729h-241v117q-64 -135 -178 -135q-92 0 -150.5 87.5t-58.5 235.5zM111 1405v22q0 96 63.5 163t157.5 67q92 0 154.5 -67t62.5 -163 v-22q0 -95 -63 -162t-154 -67q-94 0 -157.5 67t-63.5 162zM238 1409q0 -43 27 -77t67 -34q39 0 63.5 33.5t24.5 77.5v14q0 46 -24 79.5t-64 33.5q-41 0 -67.5 -33.5t-26.5 -79.5v-14zM260 326q0 -142 76 -142q33 0 57.5 27.5t24.5 77.5v188q-41 23 -76 23q-82 0 -82 -146 v-28z" />
<glyph unicode="&#xe6;" horiz-adv-x="1087" d="M29 305v35q0 178 64.5 263t178.5 85q75 0 146 -41v66q0 84 -40 128t-114 44q-71 0 -182 -51v229q105 47 229 47q159 0 238 -119q75 123 196 123q145 0 228.5 -142.5t83.5 -408.5v-127h-404q10 -121 55 -176t111 -55q35 0 68.5 11t57 25t67.5 44l18 -222 q-67 -44 -121.5 -63.5t-120.5 -19.5q-95 0 -168.5 52t-117.5 152q-29 -90 -91 -146t-143 -56q-113 0 -176 85.5t-63 237.5zM260 326q0 -142 86 -142q32 0 64.5 37t50.5 105q-10 54 -17 143q-53 31 -102 31q-82 0 -82 -146v-28zM651 627h178q0 272 -84 272q-88 0 -94 -272z " />
<glyph unicode="&#xe7;" horiz-adv-x="585" d="M51 514v66q0 256 95.5 395t250.5 139q53 0 84 -6t68 -23v-247q-67 41 -121 41q-131 0 -131 -295v-74q0 -295 135 -295q48 0 119 47v-237q-64 -36 -113 -41l-114 -275l-205 78l166 211q-110 42 -172 174t-62 342z" />
<glyph unicode="&#xe8;" d="M41 520v53q0 254 95.5 397.5t238.5 143.5q145 0 228 -142.5t83 -408.5v-127h-403q10 -121 55 -176t111 -55q50 0 88.5 18t103.5 62l18 -222q-67 -44 -121 -63.5t-120 -19.5q-162 0 -269.5 142.5t-107.5 397.5zM70 1464l182 97l197 -353h-144zM281 627h178q0 272 -84 272 q-88 0 -94 -272z" />
<glyph unicode="&#xe9;" d="M41 520v53q0 254 95.5 397.5t238.5 143.5q145 0 228 -142.5t83 -408.5v-127h-403q10 -121 55 -176t111 -55q50 0 88.5 18t103.5 62l18 -222q-67 -44 -121 -63.5t-120 -19.5q-162 0 -269.5 142.5t-107.5 397.5zM272 1208l197 353l182 -97l-235 -256h-144zM281 627h178 q0 272 -84 272q-88 0 -94 -272z" />
<glyph unicode="&#xea;" d="M41 520v53q0 254 95.5 397.5t238.5 143.5q145 0 228 -142.5t83 -408.5v-127h-403q10 -121 55 -176t111 -55q50 0 88.5 18t103.5 62l18 -222q-67 -44 -121 -63.5t-120 -19.5q-162 0 -269.5 142.5t-107.5 397.5zM123 1208l150 322h198l152 -322h-148l-104 217l-104 -217 h-144zM281 627h178q0 272 -84 272q-88 0 -94 -272z" />
<glyph unicode="&#xeb;" d="M41 520v53q0 254 95.5 397.5t238.5 143.5q145 0 228 -142.5t83 -408.5v-127h-403q10 -121 55 -176t111 -55q50 0 88.5 18t103.5 62l18 -222q-67 -44 -121 -63.5t-120 -19.5q-162 0 -269.5 142.5t-107.5 397.5zM94 1221v215h217v-215h-217zM281 627h178q0 272 -84 272 q-88 0 -94 -272zM434 1221v215h217v-215h-217z" />
<glyph unicode="&#xec;" horiz-adv-x="380" d="M-119 1464l182 97l197 -353h-143zM70 0v1098h241v-1098h-241z" />
<glyph unicode="&#xed;" horiz-adv-x="380" d="M70 0v1098h241v-1098h-241zM102 1208l197 353l182 -97l-235 -256h-144z" />
<glyph unicode="&#xee;" horiz-adv-x="380" d="M-60 1208l150 322h198l152 -322h-148l-104 217l-104 -217h-144zM70 0v1098h241v-1098h-241z" />
<glyph unicode="&#xef;" horiz-adv-x="380" d="M-88 1221v215h217v-215h-217zM70 0v1098h241v-1098h-241zM252 1221v215h217v-215h-217z" />
<glyph unicode="&#xf0;" horiz-adv-x="765" d="M49 451v34q0 227 64.5 341t165.5 114q98 0 178 -102l-101 241l-149 -86l-90 156l172 98l-82 197h223l39 -94l119 67l90 -155l-137 -78l59 -140q117 -276 117 -548v-35q0 -236 -98 -358.5t-248 -122.5q-146 0 -234 120t-88 351zM293 453q0 -260 88 -260q44 0 67 57t23 203 v28q0 148 -23 204t-67 56q-27 0 -45 -20t-30.5 -79.5t-12.5 -160.5v-28z" />
<glyph unicode="&#xf1;" horiz-adv-x="776" d="M68 0v1098h241v-131q36 71 82 111t113 40q102 0 156.5 -78.5t54.5 -208.5v-831h-242v776q0 59 -21.5 92t-58.5 33q-38 0 -61 -33t-23 -92v-776h-241zM96 1221q11 113 63 169t113 56q66 0 137 -51q3 -2 14.5 -9.5t16 -10t14 -8t16 -7.5t15.5 -4t18 -2q25 0 39.5 22.5 t28.5 77.5l129 -37q-11 -113 -63 -169t-113 -56q-66 0 -137 51q-3 2 -14.5 9.5t-16 10t-14 8t-16 7.5t-15.5 4t-18 2q-25 0 -39.5 -22.5t-28.5 -77.5z" />
<glyph unicode="&#xf2;" horiz-adv-x="774" d="M47 514v66q0 257 93.5 395.5t246.5 138.5t246.5 -138.5t93.5 -395.5v-66q0 -257 -93.5 -395.5t-246.5 -138.5t-246.5 138.5t-93.5 395.5zM94 1464l182 97l197 -353h-143zM289 510q0 -157 25.5 -236t72.5 -79t72.5 79t25.5 236v74q0 315 -98 315t-98 -315v-74z" />
<glyph unicode="&#xf3;" horiz-adv-x="774" d="M47 514v66q0 257 93.5 395.5t246.5 138.5t246.5 -138.5t93.5 -395.5v-66q0 -257 -93.5 -395.5t-246.5 -138.5t-246.5 138.5t-93.5 395.5zM289 510q0 -157 25.5 -236t72.5 -79t72.5 79t25.5 236v74q0 315 -98 315t-98 -315v-74zM296 1208l197 353l182 -97l-235 -256h-144z " />
<glyph unicode="&#xf4;" horiz-adv-x="774" d="M47 514v66q0 257 93.5 395.5t246.5 138.5t246.5 -138.5t93.5 -395.5v-66q0 -257 -93.5 -395.5t-246.5 -138.5t-246.5 138.5t-93.5 395.5zM137 1208l150 322h198l152 -322h-148l-104 217l-104 -217h-144zM289 510q0 -157 25.5 -236t72.5 -79t72.5 79t25.5 236v74 q0 315 -98 315t-98 -315v-74z" />
<glyph unicode="&#xf5;" horiz-adv-x="774" d="M47 514v66q0 257 93.5 395.5t246.5 138.5t246.5 -138.5t93.5 -395.5v-66q0 -257 -93.5 -395.5t-246.5 -138.5t-246.5 138.5t-93.5 395.5zM84 1221q11 113 63 169t113 56q66 0 137 -51q3 -2 14.5 -9.5t16 -10t14 -8t16 -7.5t15.5 -4t18 -2q25 0 39.5 22.5t28.5 77.5 l129 -37q-11 -113 -63 -169t-113 -56q-66 0 -137 51q-3 2 -14.5 9.5t-16 10t-14 8t-16 7.5t-15.5 4t-18 2q-25 0 -39.5 -22.5t-28.5 -77.5zM289 510q0 -157 25.5 -236t72.5 -79t72.5 79t25.5 236v74q0 315 -98 315t-98 -315v-74z" />
<glyph unicode="&#xf6;" horiz-adv-x="774" d="M47 514v66q0 257 93.5 395.5t246.5 138.5t246.5 -138.5t93.5 -395.5v-66q0 -257 -93.5 -395.5t-246.5 -138.5t-246.5 138.5t-93.5 395.5zM109 1221v215h217v-215h-217zM289 510q0 -157 25.5 -236t72.5 -79t72.5 79t25.5 236v74q0 315 -98 315t-98 -315v-74zM449 1221v215 h217v-215h-217z" />
<glyph unicode="&#xf8;" horiz-adv-x="774" d="M23 -16l92 178q-68 136 -68 352v66q0 257 93.5 395.5t246.5 138.5q103 0 180 -65l37 69h141l-92 -176q74 -139 74 -362v-66q0 -257 -93.5 -395.5t-246.5 -138.5q-108 0 -188 71l-35 -67h-141zM274 467l191 364q-28 72 -78 72q-53 0 -83 -80.5t-30 -238.5v-74v-43z M303 272q30 -82 84 -82q52 0 82.5 82t30.5 238v74q0 41 -2 59z" />
<glyph unicode="&#xf9;" horiz-adv-x="776" d="M61 266v832h242v-776q0 -59 21.5 -92t58.5 -33q38 0 61 33t23 92v776h242v-1098h-242v131q-36 -71 -82 -111t-113 -40q-102 0 -156.5 78t-54.5 208zM76 1464l182 97l197 -353h-144z" />
<glyph unicode="&#xfa;" horiz-adv-x="776" d="M61 266v832h242v-776q0 -59 21.5 -92t58.5 -33q38 0 61 33t23 92v776h242v-1098h-242v131q-36 -71 -82 -111t-113 -40q-102 0 -156.5 78t-54.5 208zM309 1208l197 353l182 -97l-235 -256h-144z" />
<glyph unicode="&#xfb;" horiz-adv-x="776" d="M61 266v832h242v-776q0 -59 21.5 -92t58.5 -33q38 0 61 33t23 92v776h242v-1098h-242v131q-36 -71 -82 -111t-113 -40q-102 0 -156.5 78t-54.5 208zM137 1208l150 322h198l152 -322h-148l-104 217l-104 -217h-144z" />
<glyph unicode="&#xfc;" horiz-adv-x="776" d="M61 266v832h242v-776q0 -59 21.5 -92t58.5 -33q38 0 61 33t23 92v776h242v-1098h-242v131q-36 -71 -82 -111t-113 -40q-102 0 -156.5 78t-54.5 208zM109 1221v215h217v-215h-217zM449 1221v215h217v-215h-217z" />
<glyph unicode="&#xfd;" horiz-adv-x="741" d="M23 1098h239l105 -647l114 647h238l-303 -1364h-236l70 305zM250 1208l196 353l183 -97l-236 -256h-143z" />
<glyph unicode="&#xfe;" horiz-adv-x="786" d="M68 -266v1710h241v-483q17 32 31 53.5t38 48.5t55 41t69 14q233 0 233 -520v-98q0 -520 -233 -520q-38 0 -68.5 13t-55 40t-37.5 46.5t-32 53.5v-399h-241zM307 512q0 -146 25 -223.5t71 -77.5q91 0 91 301v74q0 301 -91 301q-46 0 -71 -77t-25 -224v-74z" />
<glyph unicode="&#xff;" horiz-adv-x="741" d="M23 1098h239l105 -647l114 647h238l-303 -1364h-236l70 305zM88 1221v215h218v-215h-218zM428 1221v215h218v-215h-218z" />
<glyph unicode="&#x152;" horiz-adv-x="1138" d="M49 692v49q0 342 130 517.5t372 175.5h534v-238h-299v-356h265v-238h-265v-364h306v-238h-541q-242 0 -372 175t-130 517zM303 692q0 -463 221 -463h11v975h-11q-221 0 -221 -463v-49z" />
<glyph unicode="&#x153;" horiz-adv-x="1181" d="M47 514v66q0 257 93.5 395.5t246.5 138.5q151 0 231 -143q80 143 222 143q145 0 228 -142.5t83 -408.5v-127h-403q10 -121 54.5 -176t110.5 -55q35 0 68.5 11t57 25t67.5 44l18 -222q-67 -44 -121 -63.5t-120 -19.5q-165 0 -258 151q-80 -151 -238 -151 q-153 0 -246.5 138.5t-93.5 395.5zM289 510q0 -157 25.5 -236t72.5 -79t72.5 79t25.5 236v74q0 315 -98 315t-98 -315v-74zM745 627h179q0 272 -84 272q-89 0 -95 -272z" />
<glyph unicode="&#x178;" horiz-adv-x="782" d="M0 1434h258l135 -537l137 537h252l-266 -869v-565h-250v565zM113 1530v215h217v-215h-217zM453 1530v215h217v-215h-217z" />
<glyph unicode="&#x2c6;" horiz-adv-x="1024" d="M262 1208l150 322h198l152 -322h-148l-104 217l-104 -217h-144z" />
<glyph unicode="&#x2dc;" horiz-adv-x="1024" d="M209 1221q11 113 63 169t113 56q66 0 137 -51q3 -2 14.5 -9.5t16 -10t14 -8t16 -7.5t15.5 -4t18 -2q25 0 39.5 22.5t28.5 77.5l129 -37q-11 -113 -63 -169t-113 -56q-66 0 -137 51q-3 2 -14.5 9.5t-16 10t-14 8t-16 7.5t-15.5 4t-18 2q-25 0 -39.5 -22.5t-28.5 -77.5z " />
<glyph unicode="&#x2000;" horiz-adv-x="935" />
<glyph unicode="&#x2001;" horiz-adv-x="1870" />
<glyph unicode="&#x2002;" horiz-adv-x="935" />
<glyph unicode="&#x2003;" horiz-adv-x="1870" />
<glyph unicode="&#x2004;" horiz-adv-x="623" />
<glyph unicode="&#x2005;" horiz-adv-x="467" />
<glyph unicode="&#x2006;" horiz-adv-x="311" />
<glyph unicode="&#x2007;" horiz-adv-x="311" />
<glyph unicode="&#x2008;" horiz-adv-x="233" />
<glyph unicode="&#x2009;" horiz-adv-x="374" />
<glyph unicode="&#x200a;" horiz-adv-x="103" />
<glyph unicode="&#x2010;" horiz-adv-x="688" d="M80 512v246h528v-246h-528z" />
<glyph unicode="&#x2011;" horiz-adv-x="688" d="M80 512v246h528v-246h-528z" />
<glyph unicode="&#x2012;" horiz-adv-x="688" d="M80 512v246h528v-246h-528z" />
<glyph unicode="&#x2013;" horiz-adv-x="933" d="M80 514v242h774v-242h-774z" />
<glyph unicode="&#x2014;" horiz-adv-x="1380" d="M80 514v242h1220v-242h-1220z" />
<glyph unicode="&#x2018;" horiz-adv-x="460" d="M82 823v234q0 164 78 263.5t229 119.5l21 -101q-54 -12 -92 -37t-55.5 -58t-23 -66t-1.5 -70h127v-285h-283z" />
<glyph unicode="&#x2019;" horiz-adv-x="460" d="M51 918q54 12 92 37t55.5 58t23 66t1.5 70h-127v285h283v-234q0 -164 -78 -263.5t-229 -119.5z" />
<glyph unicode="&#x201a;" horiz-adv-x="512" d="M57 -231q61 13 103.5 38t63 57.5t27.5 66t3 69.5h-127v285h283v-234q0 -166 -82.5 -264t-249.5 -119z" />
<glyph unicode="&#x201c;" horiz-adv-x="849" d="M82 823v234q0 164 78 263.5t229 119.5l21 -101q-54 -12 -92 -37t-55.5 -58t-23 -66t-1.5 -70h127v-285h-283zM471 823v234q0 164 78 263.5t229 119.5l21 -101q-54 -12 -92 -37t-55.5 -58t-23 -66t-1.5 -70h127v-285h-283z" />
<glyph unicode="&#x201d;" horiz-adv-x="849" d="M51 918q54 12 92 37t55.5 58t23 66t1.5 70h-127v285h283v-234q0 -164 -78 -263.5t-229 -119.5zM440 918q54 12 92 37t55.5 58t23 66t1.5 70h-127v285h283v-234q0 -164 -78 -263.5t-229 -119.5z" />
<glyph unicode="&#x201e;" horiz-adv-x="921" d="M57 -231q61 13 103.5 38t63 57.5t27.5 66t3 69.5h-127v285h283v-234q0 -166 -82.5 -264t-249.5 -119zM467 -231q61 13 103.5 38t63 57.5t27.5 66t3 69.5h-127v285h282v-234q0 -166 -82.5 -264t-249.5 -119z" />
<glyph unicode="&#x2022;" horiz-adv-x="718" d="M131 707v36q0 140 62.5 215.5t164.5 75.5t165 -75.5t63 -215.5v-36q0 -140 -63 -215.5t-165 -75.5t-164.5 75.5t-62.5 215.5z" />
<glyph unicode="&#x2026;" horiz-adv-x="1503" d="M102 0v285h283v-285h-283zM610 0v285h283v-285h-283zM1118 0v285h283v-285h-283z" />
<glyph unicode="&#x202f;" horiz-adv-x="374" />
<glyph unicode="&#x2039;" horiz-adv-x="555" d="M47 541v16l275 459l188 -111l-221 -354l227 -354l-194 -115z" />
<glyph unicode="&#x203a;" horiz-adv-x="555" d="M39 197l227 354l-221 354l188 111l275 -459v-16l-275 -459z" />
<glyph unicode="&#x205f;" horiz-adv-x="467" />
<glyph unicode="&#x2122;" horiz-adv-x="882" d="M31 1307v127h291v-127h-80v-519h-131v519h-80zM385 788v646h137l74 -215l74 215h137v-646h-127v392l-84 -246h-2l-80 246v-392h-129z" />
<glyph unicode="&#x25fc;" horiz-adv-x="1095" d="M0 0v1096h1096v-1096h-1096z" />
</font>
</defs>
</svg>
